<svg xmlns="http://www.w3.org/2000/svg" viewBox="0 0 1400 840" fill="none">
  <!-- Background -->
  <rect width="1400" height="840" fill="#F8FAFC" rx="12"/>

  <!-- Sidebar -->
  <rect width="220" height="840" fill="#FFFFFF" rx="12"/>
  <rect width="220" height="840" fill="#FFFFFF"/>
  <rect x="220" y="0" width="1" height="840" fill="#E2E8F0"/>

  <!-- Sidebar Logo area -->
  <circle cx="32" cy="28" r="16" fill="#3B82F6" opacity="0.15"/>
  <text x="54" y="33" font-family="system-ui,sans-serif" font-size="14" font-weight="700" fill="#1E293B">design4ward</text>

  <!-- Sidebar nav items -->
  <rect x="12" y="60" width="196" height="8" rx="4" fill="#94A3B8" opacity="0.3"/>

  <!-- RESEAU section -->
  <text x="16" y="100" font-family="system-ui,sans-serif" font-size="9" font-weight="600" fill="#94A3B8" letter-spacing="1">RESEAU</text>

  <!-- Active item - Flux (Cockpit) -->
  <rect x="8" y="108" width="204" height="36" rx="8" fill="#3B82F6"/>
  <text x="40" y="131" font-family="system-ui,sans-serif" font-size="13" fill="#FFFFFF">Flux (Cockpit)</text>
  <path d="M20 122 L28 122 M20 128 L28 128 M24 118 L24 132" stroke="#FFFFFF" stroke-width="1.5" stroke-linecap="round"/>

  <text x="40" y="166" font-family="system-ui,sans-serif" font-size="13" fill="#475569">Carte logistique</text>

  <!-- OPTIMISATION section -->
  <text x="16" y="200" font-family="system-ui,sans-serif" font-size="9" font-weight="600" fill="#94A3B8" letter-spacing="1">OPTIMISATION</text>
  <text x="40" y="225" font-family="system-ui,sans-serif" font-size="13" fill="#475569">Initiatives</text>
  <text x="40" y="252" font-family="system-ui,sans-serif" font-size="13" fill="#475569">Diagnostic intermodal</text>

  <!-- SOURCING section -->
  <text x="16" y="286" font-family="system-ui,sans-serif" font-size="9" font-weight="600" fill="#94A3B8" letter-spacing="1">SOURCING</text>
  <text x="40" y="311" font-family="system-ui,sans-serif" font-size="13" fill="#475569">Transporteurs</text>
  <text x="40" y="338" font-family="system-ui,sans-serif" font-size="13" fill="#475569">Contrats</text>

  <!-- DONNEES section -->
  <text x="16" y="372" font-family="system-ui,sans-serif" font-size="9" font-weight="600" fill="#94A3B8" letter-spacing="1">DONNEES</text>
  <text x="40" y="397" font-family="system-ui,sans-serif" font-size="13" fill="#475569">Points</text>
  <text x="40" y="424" font-family="system-ui,sans-serif" font-size="13" fill="#475569">Imports</text>

  <!-- Sidebar bottom - Parametres -->
  <text x="40" y="790" font-family="system-ui,sans-serif" font-size="13" fill="#475569">Parametres</text>

  <!-- Main content area -->
  <!-- Page title -->
  <text x="250" y="48" font-family="system-ui,sans-serif" font-size="22" font-weight="700" fill="#0F172A">Flux — Cockpit</text>

  <!-- Tabs -->
  <text x="260" y="84" font-family="system-ui,sans-serif" font-size="14" font-weight="600" fill="#3B82F6">Carte</text>
  <rect x="255" y="88" width="40" height="2" fill="#3B82F6"/>
  <text x="320" y="84" font-family="system-ui,sans-serif" font-size="14" fill="#94A3B8">Liste</text>

  <!-- T.km button -->
  <rect x="260" y="110" width="90" height="34" rx="17" fill="#3B82F6"/>
  <text x="290" y="132" font-family="system-ui,sans-serif" font-size="12" font-weight="600" fill="#FFFFFF">T.km</text>

  <!-- Desequilibre button -->
  <rect x="360" y="110" width="120" height="34" rx="17" fill="#F1F5F9" stroke="#E2E8F0"/>
  <text x="390" y="132" font-family="system-ui,sans-serif" font-size="12" fill="#64748B">Desequilibre</text>

  <!-- Left panel - Carte des flux -->
  <rect x="250" y="160" width="260" height="480" rx="8" fill="#FFFFFF" stroke="#E2E8F0"/>
  <text x="270" y="190" font-family="system-ui,sans-serif" font-size="15" font-weight="700" fill="#0F172A">Carte des flux</text>
  <rect x="395" y="176" width="60" height="22" rx="11" fill="#EFF6FF"/>
  <text x="405" y="192" font-family="system-ui,sans-serif" font-size="11" fill="#3B82F6">104 flux</text>

  <!-- Toggle buttons -->
  <rect x="270" y="205" width="100" height="30" rx="6" fill="#3B82F6"/>
  <text x="293" y="225" font-family="system-ui,sans-serif" font-size="11" fill="#FFFFFF">Individuel</text>
  <rect x="370" y="205" width="80" height="30" rx="6" fill="#F8FAFC" stroke="#E2E8F0"/>
  <text x="388" y="225" font-family="system-ui,sans-serif" font-size="11" fill="#64748B">Corridor</text>

  <!-- Recherche input -->
  <text x="270" y="260" font-family="system-ui,sans-serif" font-size="11" fill="#64748B">Recherche</text>
  <rect x="270" y="268" width="220" height="30" rx="6" fill="#FFFFFF" stroke="#E2E8F0"/>
  <text x="280" y="288" font-family="system-ui,sans-serif" font-size="11" fill="#CBD5E1">Ville, region...</text>

  <!-- T.KM sliders -->
  <text x="270" y="320" font-family="system-ui,sans-serif" font-size="11" fill="#64748B">T.KM min</text>
  <line x1="320" y1="316" x2="460" y2="316" stroke="#E2E8F0" stroke-width="3" stroke-linecap="round"/>
  <circle cx="420" cy="316" r="6" fill="#3B82F6"/>
  <text x="470" y="320" font-family="system-ui,sans-serif" font-size="11" fill="#64748B">100</text>

  <text x="270" y="350" font-family="system-ui,sans-serif" font-size="11" fill="#64748B">T.KM max</text>
  <line x1="320" y1="346" x2="460" y2="346" stroke="#E2E8F0" stroke-width="3" stroke-linecap="round"/>
  <circle cx="345" cy="346" r="6" fill="#3B82F6"/>
  <text x="470" y="350" font-family="system-ui,sans-serif" font-size="11" fill="#64748B">3k</text>

  <!-- Filter -->
  <rect x="270" y="365" width="220" height="30" rx="6" fill="#FFFFFF" stroke="#E2E8F0"/>
  <text x="290" y="385" font-family="system-ui,sans-serif" font-size="11" fill="#64748B">Top 20% T.KM</text>

  <!-- Legend - Origins/Destinations -->
  <circle cx="280" cy="420" r="5" fill="#22C55E"/>
  <text x="292" y="424" font-family="system-ui,sans-serif" font-size="11" fill="#22C55E">Origine</text>
  <circle cx="280" cy="440" r="5" fill="#3B82F6"/>
  <text x="292" y="444" font-family="system-ui,sans-serif" font-size="11" fill="#3B82F6">Destination</text>

  <!-- Legend - Modes -->
  <text x="270" y="470" font-family="system-ui,sans-serif" font-size="10" font-weight="600" fill="#94A3B8" letter-spacing="0.5">MODES</text>
  <line x1="270" y1="485" x2="295" y2="485" stroke="#1E40AF" stroke-width="2.5"/>
  <text x="302" y="489" font-family="system-ui,sans-serif" font-size="11" fill="#475569">FTL Route</text>
  <line x1="270" y1="503" x2="285" y2="503" stroke="#3B82F6" stroke-width="2" stroke-dasharray="4 2"/>
  <line x1="285" y1="503" x2="295" y2="503" stroke="#3B82F6" stroke-width="2" stroke-dasharray="4 2"/>
  <text x="302" y="507" font-family="system-ui,sans-serif" font-size="11" fill="#475569">LTL Route</text>
  <line x1="270" y1="521" x2="295" y2="521" stroke="#A855F7" stroke-width="2"/>
  <text x="302" y="525" font-family="system-ui,sans-serif" font-size="11" fill="#475569">Groupage</text>
  <line x1="270" y1="539" x2="295" y2="539" stroke="#22C55E" stroke-width="2.5"/>
  <text x="302" y="543" font-family="system-ui,sans-serif" font-size="11" fill="#475569">Ferroviaire D2D</text>
  <line x1="270" y1="557" x2="295" y2="557" stroke="#16A34A" stroke-width="2" stroke-dasharray="6 2"/>
  <text x="302" y="561" font-family="system-ui,sans-serif" font-size="11" fill="#475569">Ferroviaire T2T</text>

  <!-- Map area -->
  <rect x="520" y="160" width="860" height="480" rx="0" fill="#E8EFFA"/>

  <!-- Simplified map background - water/land -->
  <path d="M520 160 L1380 160 L1380 640 L520 640 Z" fill="#DAE4F0" opacity="0.5"/>

  <!-- Country labels -->
  <text x="680" y="220" font-family="system-ui,sans-serif" font-size="10" fill="#94A3B8">UNITED KINGDOM</text>
  <text x="920" y="210" font-family="system-ui,sans-serif" font-size="10" fill="#94A3B8">NETHERLANDS</text>
  <text x="660" y="290" font-family="system-ui,sans-serif" font-size="9" fill="#94A3B8">IRELAND</text>
  <text x="750" y="310" font-family="system-ui,sans-serif" font-size="9" fill="#94A3B8">LONDON</text>
  <text x="1050" y="250" font-family="system-ui,sans-serif" font-size="10" fill="#94A3B8">GERMANY</text>
  <text x="1200" y="290" font-family="system-ui,sans-serif" font-size="9" fill="#94A3B8">BERLIN</text>
  <text x="1050" y="340" font-family="system-ui,sans-serif" font-size="9" fill="#94A3B8">Frankfurt</text>
  <text x="1200" y="440" font-family="system-ui,sans-serif" font-size="9" fill="#94A3B8">VIENNA</text>
  <text x="830" y="590" font-family="system-ui,sans-serif" font-size="9" fill="#94A3B8">Barcelona</text>
  <text x="1080" y="580" font-family="system-ui,sans-serif" font-size="10" fill="#94A3B8">ITALY</text>
  <text x="900" y="460" font-family="system-ui,sans-serif" font-size="10" fill="#94A3B8">FRANCE</text>

  <!-- Transport flow lines - Blue (FTL) -->
  <path d="M950 380 Q1000 300 1100 350" stroke="#3B82F6" stroke-width="3" fill="none" opacity="0.7"/>
  <path d="M950 380 Q850 350 800 300" stroke="#3B82F6" stroke-width="2.5" fill="none" opacity="0.6"/>
  <path d="M950 380 Q1050 400 1150 380" stroke="#3B82F6" stroke-width="2" fill="none" opacity="0.5"/>
  <path d="M950 380 Q900 450 850 520" stroke="#3B82F6" stroke-width="2" fill="none" opacity="0.5"/>
  <path d="M1000 360 Q1100 300 1200 280" stroke="#3B82F6" stroke-width="2.5" fill="none" opacity="0.6"/>
  <path d="M950 380 Q950 300 980 250" stroke="#3B82F6" stroke-width="1.5" fill="none" opacity="0.5"/>
  <path d="M980 370 Q1020 350 1080 320" stroke="#3B82F6" stroke-width="2" fill="none" opacity="0.6"/>
  <path d="M940 390 Q880 420 820 460" stroke="#3B82F6" stroke-width="2" fill="none" opacity="0.5"/>
  <path d="M960 370 Q1000 340 1060 300" stroke="#3B82F6" stroke-width="1.5" fill="none" opacity="0.4"/>

  <!-- Transport flow lines - Pink/Magenta (Groupage) -->
  <path d="M950 380 Q1000 420 1060 400" stroke="#EC4899" stroke-width="2.5" fill="none" opacity="0.6"/>
  <path d="M950 380 Q920 340 900 280" stroke="#EC4899" stroke-width="2" fill="none" opacity="0.5"/>
  <path d="M960 390 Q1020 380 1080 360" stroke="#EC4899" stroke-width="2" fill="none" opacity="0.6"/>
  <path d="M940 380 Q880 380 830 400" stroke="#EC4899" stroke-width="1.5" fill="none" opacity="0.5"/>
  <path d="M950 400 Q990 440 1040 460" stroke="#EC4899" stroke-width="2" fill="none" opacity="0.5"/>
  <path d="M970 370 Q1020 330 1070 340" stroke="#EC4899" stroke-width="1.5" fill="none" opacity="0.4"/>

  <!-- Transport flow lines - Green (Ferroviaire) -->
  <path d="M950 380 Q1050 350 1150 300" stroke="#22C55E" stroke-width="3" fill="none" opacity="0.7"/>
  <path d="M950 380 Q850 400 750 350" stroke="#22C55E" stroke-width="2.5" fill="none" opacity="0.6"/>
  <path d="M950 380 Q1000 450 1100 480" stroke="#22C55E" stroke-width="2" fill="none" opacity="0.5"/>
  <path d="M960 375 Q1040 360 1120 370" stroke="#22C55E" stroke-width="2" fill="none" opacity="0.6"/>

  <!-- Transport flow lines - Teal -->
  <path d="M950 380 Q1100 380 1250 350" stroke="#06B6D4" stroke-width="2.5" fill="none" opacity="0.6"/>
  <path d="M950 380 Q1050 440 1200 450" stroke="#06B6D4" stroke-width="2" fill="none" opacity="0.5"/>

  <!-- Origin/Destination dots -->
  <circle cx="950" cy="380" r="5" fill="#22C55E"/>
  <circle cx="1100" cy="350" r="4" fill="#3B82F6"/>
  <circle cx="800" cy="300" r="4" fill="#3B82F6"/>
  <circle cx="1150" cy="380" r="4" fill="#3B82F6"/>
  <circle cx="850" cy="520" r="4" fill="#22C55E"/>
  <circle cx="1200" cy="280" r="4" fill="#22C55E"/>
  <circle cx="980" cy="250" r="4" fill="#3B82F6"/>
  <circle cx="1080" cy="320" r="4" fill="#3B82F6"/>
  <circle cx="820" cy="460" r="4" fill="#22C55E"/>
  <circle cx="1060" cy="400" r="4" fill="#3B82F6"/>
  <circle cx="900" cy="280" r="4" fill="#22C55E"/>
  <circle cx="1060" cy="300" r="4" fill="#3B82F6"/>
  <circle cx="830" cy="400" r="4" fill="#22C55E"/>
  <circle cx="1040" cy="460" r="4" fill="#3B82F6"/>
  <circle cx="1150" cy="300" r="4" fill="#22C55E"/>
  <circle cx="750" cy="350" r="4" fill="#3B82F6"/>
  <circle cx="1100" cy="480" r="4" fill="#22C55E"/>
  <circle cx="1120" cy="370" r="4" fill="#3B82F6"/>
  <circle cx="1250" cy="350" r="4" fill="#22C55E"/>
  <circle cx="1200" cy="450" r="4" fill="#3B82F6"/>
  <circle cx="700" cy="580" r="4" fill="#22C55E"/>
  <circle cx="1300" cy="260" r="4" fill="#22C55E"/>

  <!-- Zoom controls -->
  <rect x="530" y="178" width="28" height="52" rx="4" fill="#FFFFFF" stroke="#E2E8F0"/>
  <text x="539" y="200" font-family="system-ui,sans-serif" font-size="16" fill="#64748B">+</text>
  <line x1="536" y1="205" x2="552" y2="205" stroke="#E2E8F0"/>
  <text x="540" y="224" font-family="system-ui,sans-serif" font-size="16" fill="#64748B">-</text>

  <!-- Bottom stats bar -->
  <rect x="520" y="640" width="860" height="48" fill="#FFFFFF" stroke="#E2E8F0"/>
  <text x="620" y="665" font-family="system-ui,sans-serif" font-size="14" font-weight="700" fill="#0F172A">159.8k T.KM</text>
  <text x="620" y="680" font-family="system-ui,sans-serif" font-size="9" fill="#94A3B8" letter-spacing="0.5">T.KM AFFICHES</text>
  <text x="870" y="665" font-family="system-ui,sans-serif" font-size="14" font-weight="700" fill="#0F172A">0 EUR</text>
  <text x="860" y="680" font-family="system-ui,sans-serif" font-size="9" fill="#94A3B8" letter-spacing="0.5">COUT AFFICHE</text>
  <text x="1120" y="665" font-family="system-ui,sans-serif" font-size="14" font-weight="700" fill="#0F172A">100%</text>
  <text x="1110" y="680" font-family="system-ui,sans-serif" font-size="9" fill="#94A3B8" letter-spacing="0.5">DU RESEAU</text>

  <!-- Bottom summary bar -->
  <rect x="250" y="700" width="1130" height="70" rx="8" fill="#FFFFFF" stroke="#E2E8F0"/>
  <text x="290" y="735" font-family="system-ui,sans-serif" font-size="24" font-weight="700" fill="#3B82F6">159.8k</text>
  <text x="290" y="755" font-family="system-ui,sans-serif" font-size="11" fill="#94A3B8">T.KM total</text>
  <text x="400" y="735" font-family="system-ui,sans-serif" font-size="24" font-weight="700" fill="#0F172A">104</text>
  <text x="400" y="755" font-family="system-ui,sans-serif" font-size="11" fill="#94A3B8">Flux affiches</text>
  <text x="520" y="735" font-family="system-ui,sans-serif" font-size="24" font-weight="700" fill="#0F172A">104</text>
  <text x="520" y="755" font-family="system-ui,sans-serif" font-size="11" fill="#94A3B8">Ordres</text>
</svg>
