<svg xmlns="http://www.w3.org/2000/svg" viewBox="0 0 1400 840" fill="none">
  <!-- Background -->
  <rect width="1400" height="840" fill="#FAFBFC" rx="12"/>

  <!-- Sidebar -->
  <rect width="220" height="840" fill="#FFFFFF"/>
  <rect x="220" y="0" width="1" height="840" fill="#E5E7EB"/>

  <!-- Sidebar Logo area -->
  <rect x="16" y="12" width="36" height="36" rx="8" fill="#F97316" opacity="0.15"/>
  <text x="60" y="28" font-family="system-ui,sans-serif" font-size="15" font-weight="700" fill="#1F2937">Modal4ward</text>
  <text x="60" y="44" font-family="system-ui,sans-serif" font-size="9" fill="#9CA3AF" letter-spacing="0.5">TRANSPORT MULTIMODAL</text>

  <!-- Dashboard - Active -->
  <rect x="8" y="68" width="204" height="34" rx="6" fill="#FFF7ED"/>
  <text x="42" y="90" font-family="system-ui,sans-serif" font-size="13" font-weight="600" fill="#EA580C">Dashboard</text>

  <!-- ACTEURS section -->
  <text x="16" y="130" font-family="system-ui,sans-serif" font-size="9" font-weight="600" fill="#9CA3AF" letter-spacing="1">ACTEURS</text>
  <text x="42" y="155" font-family="system-ui,sans-serif" font-size="13" fill="#6B7280">Recherche</text>
  <text x="42" y="180" font-family="system-ui,sans-serif" font-size="13" fill="#6B7280">Entreprises</text>

  <!-- SERVICES section -->
  <text x="16" y="215" font-family="system-ui,sans-serif" font-size="9" font-weight="600" fill="#9CA3AF" letter-spacing="1">SERVICES</text>
  <text x="42" y="240" font-family="system-ui,sans-serif" font-size="13" fill="#6B7280">Recherche multimodale</text>
  <text x="42" y="265" font-family="system-ui,sans-serif" font-size="13" fill="#6B7280">Offres et services</text>

  <!-- RESEAU section -->
  <text x="16" y="300" font-family="system-ui,sans-serif" font-size="9" font-weight="600" fill="#9CA3AF" letter-spacing="1">RESEAU</text>
  <text x="42" y="325" font-family="system-ui,sans-serif" font-size="13" fill="#6B7280">Recherche</text>
  <text x="42" y="350" font-family="system-ui,sans-serif" font-size="13" fill="#6B7280">Terminaux</text>

  <!-- Sidebar bottom -->
  <text x="42" y="770" font-family="system-ui,sans-serif" font-size="13" fill="#6B7280">Administration</text>

  <!-- Main content -->
  <!-- Greeting -->
  <text x="265" y="60" font-family="system-ui,sans-serif" font-size="26" font-weight="700" fill="#111827">Bonsoir, superadmin</text>
  <text x="265" y="86" font-family="system-ui,sans-serif" font-size="14" fill="#6B7280">Votre plateforme de gestion du transport multimodal</text>

  <!-- KPI Cards -->
  <!-- Card 1 - Operateurs Multimodaux -->
  <rect x="265" y="110" width="260" height="130" rx="12" fill="#FFFFFF" stroke="#E5E7EB"/>
  <rect x="285" y="130" width="40" height="40" rx="10" fill="#3B82F6"/>
  <text x="298" y="156" font-family="system-ui,sans-serif" font-size="16" fill="#FFFFFF" font-weight="700">Op</text>
  <text x="285" y="195" font-family="system-ui,sans-serif" font-size="10" font-weight="600" fill="#6B7280" letter-spacing="0.5">OPERATEURS MULTIMODAUX</text>
  <text x="285" y="222" font-family="system-ui,sans-serif" font-size="28" font-weight="700" fill="#111827">5</text>
  <text x="285" y="238" font-family="system-ui,sans-serif" font-size="11" fill="#9CA3AF">182 services actifs</text>

  <!-- Card 2 - Commissionnaires -->
  <rect x="540" y="110" width="260" height="130" rx="12" fill="#FFFFFF" stroke="#E5E7EB"/>
  <rect x="560" y="130" width="40" height="40" rx="10" fill="#F97316"/>
  <text x="573" y="156" font-family="system-ui,sans-serif" font-size="16" fill="#FFFFFF" font-weight="700">Co</text>
  <text x="560" y="195" font-family="system-ui,sans-serif" font-size="10" font-weight="600" fill="#6B7280" letter-spacing="0.5">COMMISSIONNAIRES</text>
  <text x="560" y="222" font-family="system-ui,sans-serif" font-size="28" font-weight="700" fill="#111827">1</text>
  <text x="560" y="238" font-family="system-ui,sans-serif" font-size="11" fill="#9CA3AF">Transport &amp; logistique</text>

  <!-- Card 3 - Operateurs Terminaux -->
  <rect x="815" y="110" width="260" height="130" rx="12" fill="#FFFFFF" stroke="#E5E7EB"/>
  <rect x="835" y="130" width="40" height="40" rx="10" fill="#22C55E"/>
  <text x="848" y="156" font-family="system-ui,sans-serif" font-size="16" fill="#FFFFFF" font-weight="700">Te</text>
  <text x="835" y="195" font-family="system-ui,sans-serif" font-size="10" font-weight="600" fill="#6B7280" letter-spacing="0.5">OPERATEURS TERMINAUX</text>
  <text x="835" y="222" font-family="system-ui,sans-serif" font-size="28" font-weight="700" fill="#111827">0</text>
  <text x="835" y="238" font-family="system-ui,sans-serif" font-size="11" fill="#9CA3AF">0 terminaux</text>

  <!-- Card 4 - Couverture -->
  <rect x="1090" y="110" width="260" height="130" rx="12" fill="#FFFFFF" stroke="#E5E7EB"/>
  <rect x="1110" y="130" width="40" height="40" rx="10" fill="#8B5CF6"/>
  <text x="1121" y="156" font-family="system-ui,sans-serif" font-size="14" fill="#FFFFFF" font-weight="700">Cov</text>
  <text x="1110" y="195" font-family="system-ui,sans-serif" font-size="10" font-weight="600" fill="#6B7280" letter-spacing="0.5">COUVERTURE</text>
  <text x="1110" y="222" font-family="system-ui,sans-serif" font-size="28" font-weight="700" fill="#111827">6</text>
  <text x="1110" y="238" font-family="system-ui,sans-serif" font-size="11" fill="#9CA3AF">Pays desservis</text>

  <!-- Network section title -->
  <text x="285" y="280" font-family="system-ui,sans-serif" font-size="16" font-weight="700" fill="#111827">Reseau de services multimodaux</text>

  <!-- Mode filter chips -->
  <rect x="265" y="295" width="60" height="28" rx="14" fill="#3B82F6"/>
  <text x="280" y="314" font-family="system-ui,sans-serif" font-size="11" fill="#FFFFFF" font-weight="600">Rail</text>
  <rect x="335" y="295" width="80" height="28" rx="14" fill="#06B6D4"/>
  <text x="350" y="314" font-family="system-ui,sans-serif" font-size="11" fill="#FFFFFF" font-weight="600">Shortsea</text>
  <rect x="425" y="295" width="60" height="28" rx="14" fill="#22C55E"/>
  <text x="438" y="314" font-family="system-ui,sans-serif" font-size="11" fill="#FFFFFF" font-weight="600">Road</text>
  <rect x="495" y="295" width="80" height="28" rx="14" fill="#F59E0B"/>
  <text x="507" y="314" font-family="system-ui,sans-serif" font-size="11" fill="#FFFFFF" font-weight="600">Waterway</text>
  <rect x="585" y="295" width="50" height="28" rx="14" fill="#8B5CF6"/>
  <text x="598" y="314" font-family="system-ui,sans-serif" font-size="11" fill="#FFFFFF" font-weight="600">Air</text>
  <rect x="645" y="295" width="90" height="28" rx="14" fill="#EC4899"/>
  <text x="660" y="314" font-family="system-ui,sans-serif" font-size="11" fill="#FFFFFF" font-weight="600">Multimodal</text>

  <!-- Map area -->
  <rect x="265" y="335" width="850" height="350" rx="8" fill="#D4E6F1" stroke="#E5E7EB"/>

  <!-- Map simplified - Europe -->
  <text x="500" y="380" font-family="system-ui,sans-serif" font-size="9" fill="#9CA3AF">UNITED KINGDOM</text>
  <text x="720" y="400" font-family="system-ui,sans-serif" font-size="9" fill="#9CA3AF">POLAND</text>
  <text x="350" y="470" font-family="system-ui,sans-serif" font-size="9" fill="#9CA3AF">FRANCE</text>
  <text x="600" y="430" font-family="system-ui,sans-serif" font-size="9" fill="#9CA3AF">GERMANY</text>
  <text x="550" y="560" font-family="system-ui,sans-serif" font-size="9" fill="#9CA3AF">AUSTRIA</text>
  <text x="400" y="620" font-family="system-ui,sans-serif" font-size="9" fill="#9CA3AF">SPAIN</text>

  <!-- Terminal nodes on map -->
  <circle cx="530" cy="410" r="14" fill="#22C55E" opacity="0.9"/>
  <text x="524" y="415" font-family="system-ui,sans-serif" font-size="8" fill="#FFFFFF" font-weight="700">BRV</text>
  <circle cx="560" cy="420" r="12" fill="#3B82F6" opacity="0.9"/>
  <text x="553" y="425" font-family="system-ui,sans-serif" font-size="7" fill="#FFFFFF" font-weight="700">ANR</text>
  <circle cx="590" cy="435" r="14" fill="#22C55E" opacity="0.9"/>
  <text x="583" y="440" font-family="system-ui,sans-serif" font-size="8" fill="#FFFFFF" font-weight="700">MZB</text>
  <circle cx="530" cy="445" r="11" fill="#06B6D4" opacity="0.9"/>
  <text x="523" y="450" font-family="system-ui,sans-serif" font-size="7" fill="#FFFFFF" font-weight="700">LUF</text>
  <circle cx="560" cy="460" r="12" fill="#3B82F6" opacity="0.9"/>
  <text x="553" y="465" font-family="system-ui,sans-serif" font-size="7" fill="#FFFFFF" font-weight="700">SXB</text>
  <circle cx="620" cy="450" r="11" fill="#F59E0B" opacity="0.9"/>
  <text x="613" y="455" font-family="system-ui,sans-serif" font-size="7" fill="#FFFFFF" font-weight="700">WLK</text>
  <circle cx="500" cy="480" r="12" fill="#3B82F6" opacity="0.9"/>
  <text x="493" y="485" font-family="system-ui,sans-serif" font-size="7" fill="#FFFFFF" font-weight="700">VTN</text>
  <circle cx="560" cy="500" r="12" fill="#3B82F6" opacity="0.9"/>
  <text x="554" y="505" font-family="system-ui,sans-serif" font-size="7" fill="#FFFFFF" font-weight="700">CSS</text>
  <circle cx="530" cy="520" r="11" fill="#06B6D4" opacity="0.9"/>
  <text x="524" y="525" font-family="system-ui,sans-serif" font-size="7" fill="#FFFFFF" font-weight="700">VES</text>
  <circle cx="560" cy="540" r="12" fill="#22C55E" opacity="0.9"/>
  <text x="554" y="545" font-family="system-ui,sans-serif" font-size="7" fill="#FFFFFF" font-weight="700">FOS</text>
  <circle cx="490" cy="560" r="12" fill="#3B82F6" opacity="0.9"/>
  <text x="483" y="565" font-family="system-ui,sans-serif" font-size="7" fill="#FFFFFF" font-weight="700">FXM</text>
  <circle cx="510" cy="580" r="11" fill="#EC4899" opacity="0.9"/>
  <text x="503" y="585" font-family="system-ui,sans-serif" font-size="7" fill="#FFFFFF" font-weight="700">PGF</text>
  <circle cx="470" cy="575" r="13" fill="#F97316" opacity="0.9"/>
  <text x="461" y="580" font-family="system-ui,sans-serif" font-size="7" fill="#FFFFFF" font-weight="700">MGD</text>
  <circle cx="400" cy="490" r="12" fill="#3B82F6" opacity="0.9"/>
  <text x="393" y="495" font-family="system-ui,sans-serif" font-size="7" fill="#FFFFFF" font-weight="700">RNS</text>
  <circle cx="580" cy="510" r="11" fill="#22C55E" opacity="0.9"/>
  <text x="573" y="515" font-family="system-ui,sans-serif" font-size="7" fill="#FFFFFF" font-weight="700">NVR</text>

  <!-- Connection lines between terminals -->
  <line x1="530" y1="410" x2="560" y2="420" stroke="#3B82F6" stroke-width="1.5" opacity="0.4"/>
  <line x1="560" y1="420" x2="590" y2="435" stroke="#22C55E" stroke-width="1.5" opacity="0.4"/>
  <line x1="530" y1="445" x2="560" y2="460" stroke="#3B82F6" stroke-width="1.5" opacity="0.4"/>
  <line x1="560" y1="460" x2="560" y2="500" stroke="#06B6D4" stroke-width="1.5" opacity="0.4"/>
  <line x1="560" y1="500" x2="560" y2="540" stroke="#22C55E" stroke-width="1.5" opacity="0.4"/>
  <line x1="490" y1="560" x2="510" y2="580" stroke="#EC4899" stroke-width="1.5" opacity="0.4"/>
  <line x1="400" y1="490" x2="500" y2="480" stroke="#3B82F6" stroke-width="1.5" opacity="0.4"/>

  <!-- Actualites panel -->
  <rect x="1130" y="290" width="240" height="400" rx="8" fill="#FFFFFF" stroke="#E5E7EB"/>
  <text x="1150" y="318" font-family="system-ui,sans-serif" font-size="14" font-weight="700" fill="#111827">Actualites du secteur</text>

  <!-- News filter chips -->
  <rect x="1150" y="332" width="42" height="22" rx="11" fill="#F97316"/>
  <text x="1158" y="347" font-family="system-ui,sans-serif" font-size="9" fill="#FFFFFF" font-weight="600">Tous</text>
  <rect x="1198" y="332" width="55" height="22" rx="11" fill="#F3F4F6"/>
  <text x="1208" y="347" font-family="system-ui,sans-serif" font-size="9" fill="#6B7280">Rail 31</text>
  <rect x="1258" y="332" width="60" height="22" rx="11" fill="#F3F4F6"/>
  <text x="1265" y="347" font-family="system-ui,sans-serif" font-size="9" fill="#6B7280">Fluvial 13</text>

  <!-- News items -->
  <rect x="1150" y="365" width="50" height="18" rx="3" fill="#DC2626" opacity="0.15"/>
  <text x="1158" y="378" font-family="system-ui,sans-serif" font-size="8" font-weight="600" fill="#DC2626">AUTRE</text>
  <text x="1150" y="398" font-family="system-ui,sans-serif" font-size="11" font-weight="600" fill="#111827">Hausse des carburants : le</text>
  <text x="1150" y="412" font-family="system-ui,sans-serif" font-size="11" font-weight="600" fill="#111827">gouvernement etudie...</text>
  <text x="1150" y="428" font-family="system-ui,sans-serif" font-size="9" fill="#9CA3AF">TRM24 (France) - 2026-03-17</text>

  <rect x="1150" y="445" width="50" height="18" rx="3" fill="#DC2626" opacity="0.15"/>
  <text x="1158" y="458" font-family="system-ui,sans-serif" font-size="8" font-weight="600" fill="#DC2626">AUTRE</text>
  <text x="1150" y="478" font-family="system-ui,sans-serif" font-size="11" font-weight="600" fill="#111827">People News: Wabtec, STV</text>
  <text x="1150" y="494" font-family="system-ui,sans-serif" font-size="9" fill="#9CA3AF">Railway Age - 2026-03-17</text>

  <rect x="1150" y="510" width="50" height="18" rx="3" fill="#DC2626" opacity="0.15"/>
  <text x="1158" y="523" font-family="system-ui,sans-serif" font-size="8" font-weight="600" fill="#DC2626">AUTRE</text>
  <text x="1150" y="543" font-family="system-ui,sans-serif" font-size="11" font-weight="600" fill="#111827">Spain to fund technical studies</text>
  <text x="1150" y="557" font-family="system-ui,sans-serif" font-size="11" font-weight="600" fill="#111827">for Morocco tunnel</text>
  <text x="1150" y="573" font-family="system-ui,sans-serif" font-size="9" fill="#9CA3AF">Int. Railway Journal - 2026-03-17</text>

  <rect x="1150" y="590" width="50" height="18" rx="3" fill="#DC2626" opacity="0.15"/>
  <text x="1158" y="603" font-family="system-ui,sans-serif" font-size="8" font-weight="600" fill="#DC2626">AUTRE</text>
  <text x="1150" y="623" font-family="system-ui,sans-serif" font-size="11" font-weight="600" fill="#111827">Trump Declares U.S. 'Doesn't</text>
  <text x="1150" y="637" font-family="system-ui,sans-serif" font-size="11" font-weight="600" fill="#111827">Need Anyone'...</text>
  <text x="1150" y="653" font-family="system-ui,sans-serif" font-size="9" fill="#9CA3AF">gCaptain - 2026-03-17</text>
</svg>
